<?xml version="1.0" encoding="UTF-8"?>
<!DOCTYPE svg PUBLIC "-//W3C//DTD SVG 1.1//EN" "http://www.w3.org/Graphics/SVG/1.1/DTD/svg11.dtd">
<!-- Creator: CorelDRAW X8 -->
<svg xmlns="http://www.w3.org/2000/svg" xml:space="preserve" width="84.6666mm" height="84.6666mm" version="1.1" style="shape-rendering:geometricPrecision; text-rendering:geometricPrecision; image-rendering:optimizeQuality; fill-rule:evenodd; clip-rule:evenodd"
viewBox="0 0 8467 8467"
 xmlns:xlink="http://www.w3.org/1999/xlink"
 enable-background="new 0 0 1572.855713 1572.855713">
 <defs>
  <style type="text/css">
   <![CDATA[
    .str0 {stroke:#FF6600;stroke-width:23.81}
    .fil2 {fill:#074D6E}
    .fil0 {fill:#E6E6E6}
    .fil1 {fill:coral}
   ]]>
  </style>
 </defs>
 <g id="Layer_x0020_1">
  <metadata id="CorelCorpID_0Corel-Layer"/>
  <g id="_1915397247952">
   <g id="_1599937008848">
    <path class="fil0" d="M1007 4201c1654,-47 2990,-1360 3072,-3013l-1125 0c-82,1032 -915,1841 -1947,1876l0 1137z"/>
    <path class="fil0" d="M5053 1270c-82,2251 -1912,4069 -4175,4104l0 1126c2885,-47 5218,-2357 5301,-5230l-1126 0z"/>
   </g>
   <g id="_1599937047824">
    <path class="fil1 str0" d="M3388 507l-1478 0c0,71 12,129 12,200 0,668 -540,1208 -1208,1208 -82,0 -176,-12 -246,-35l0 1454c1548,-59 2802,-1279 2920,-2827l0 0z"/>
    <path class="fil1 str0" d="M4021 625c-94,1923 -1665,3471 -3600,3518l0 1313c2662,-47 4819,-2181 4913,-4831l-1313 0z"/>
    <path class="fil1 str0" d="M6460 636c-94,3284 -2768,5922 -6063,5981l0 1278c4011,-47 7247,-3271 7341,-7259l-1278 0z"/>
   </g>
   <path class="fil2" d="M5923 1290l1022 0c95,0 173,78 173,173l0 1022c0,96 -78,173 -173,173l-1022 0c-96,0 -173,-77 -173,-173l0 -1022c0,-95 77,-173 173,-173z"/>
   <path class="fil2" d="M7309 2950l445 0c40,0 73,33 73,73l0 445c0,40 -33,72 -73,72l-445 0c-40,0 -73,-32 -73,-72l0 -445c0,-40 33,-73 73,-73z"/>
   <path class="fil2" d="M7474 1974l504 0c51,0 91,41 91,91l0 505c0,50 -40,91 -91,91l-504 0c-51,0 -92,-41 -92,-91l0 -505c0,-50 41,-91 92,-91z"/>
   <path class="fil2" d="M3374 5038c-129,-591 172,-1226 660,-1584 488,-359 1128,-465 1729,-392 270,34 542,103 768,255 159,107 291,251 401,409 348,495 484,1133 371,1728 -67,350 -215,679 -381,994 -67,128 -138,261 -138,405 0,102 37,199 77,292 66,155 145,305 234,448l313 366 -2514 0 -100 -280c-58,-64 -146,-104 -233,-117 -132,-20 -265,9 -397,28 -132,19 -273,26 -393,-33 -119,-59 -205,-205 -155,-329 65,-162 -173,-341 -90,-495 -68,-9 -115,-77 -124,-144 -9,-68 12,-136 33,-201 18,-58 -50,-108 -110,-118 -61,-10 -128,-3 -176,-42 -70,-55 -50,-166 -13,-248 104,-230 295,-439 286,-691 -3,-85 -29,-168 -48,-251zm1475 -1713l1074 0c100,0 182,81 182,182l0 1073c0,101 -82,183 -182,183l-1074 0c-100,0 -182,-82 -182,-183l0 -1073c0,-101 82,-182 182,-182zm1504 666l431 0c40,0 73,32 73,73l0 431c0,40 -33,73 -73,73l-431 0c-41,0 -73,-33 -73,-73l0 -431c0,-41 32,-73 73,-73zm-92 1020l276 0c26,0 46,21 46,47l0 276c0,25 -20,46 -46,46l-276 0c-26,0 -47,-21 -47,-46l0 -276c0,-26 21,-47 47,-47z"/>
  </g>
 </g>
</svg>
